<?xml version="1.0" encoding="utf-8"?>
<!-- Generator: Adobe Illustrator 16.0.0, SVG Export Plug-In . SVG Version: 6.00 Build 0)  -->
<!DOCTYPE svg PUBLIC "-//W3C//DTD SVG 1.1//EN" "http://www.w3.org/Graphics/SVG/1.1/DTD/svg11.dtd">
<svg version="1.1" id="Layer_1" xmlns="http://www.w3.org/2000/svg" xmlns:xlink="http://www.w3.org/1999/xlink" x="0px" y="0px"
	 width="1698.17px" height="618.32px" viewBox="0 0 1698.17 618.32" enable-background="new 0 0 1698.17 618.32"
	 xml:space="preserve">
<g>
	<g>
		<linearGradient id="SVGID_1_" gradientUnits="userSpaceOnUse" x1="27.5967" y1="306.9683" x2="467.3877" y2="306.9683">
			<stop  offset="0" style="stop-color:#7F3F98"/>
			<stop  offset="0" style="stop-color:#7F3F98"/>
		</linearGradient>
		<path fill="url(#SVGID_1_)" d="M365.209,381.31l0.034,0.207c-0.151-0.343-0.253-0.69-0.389-1.037
			c-2.536-6.252-3.019-13.281-3.067-16.94c-0.015-1.536,0.03-2.535,0.03-2.535V242.989c0-82.45-55.768-123.685-167.297-123.685
			c-40.986,0-86.495,5.965-136.543,17.873v75.071c50.048-11.919,95.558-17.876,136.543-17.876c48.381,0,72.562,16.801,72.562,50.403
			v28.229c-25.498-4.758-50.992-7.146-76.497-7.146c-108.661,0-162.988,37.3-162.988,111.892
			c0,77.927,45.872,116.883,137.619,116.883c39.318,0,75.297-11.199,107.944-33.603c0,0,15.858-9.135,34.161-23.204
			c29.15,27.531,68.426,44.446,111.694,44.446c16.839,0,33.089-2.573,48.373-7.32C420.969,460.527,383.522,425.857,365.209,381.31z"
			/>
		<path fill="#FFFFFF" d="M361.787,363.54c0.004-0.151,0.03-0.287,0.03-0.438v-2.098
			C361.817,361.004,361.771,362.003,361.787,363.54z"/>
		<path fill="#FFFFFF" d="M365.243,381.517l-0.034-0.207c-0.117-0.283-0.246-0.559-0.355-0.83
			C364.99,380.827,365.092,381.174,365.243,381.517z"/>
		<g>
			<path fill="#FFFFFF" d="M139.635,380.186c0.045,14.888-12.002,26.999-26.901,27.033c-14.896,0.053-27.014-11.987-27.037-26.887
				c-0.049-14.91,11.998-27.011,26.897-27.056C127.486,353.247,139.586,365.286,139.635,380.186z"/>
			<path fill="#FFFFFF" d="M212.294,380.186c0.038,14.888-12.005,26.999-26.901,27.033c-14.907,0.053-27.007-11.995-27.048-26.887
				c-0.042-14.899,12.006-27.011,26.901-27.056C200.146,353.247,212.249,365.286,212.294,380.186z"/>
			<path fill="#FFFFFF" d="M284.943,380.186c0.045,14.888-11.994,26.999-26.897,27.033c-14.884,0.053-27.003-11.995-27.044-26.887
				c-0.038-14.899,12.001-27.011,26.905-27.056C272.801,353.247,284.913,365.286,284.943,380.186z"/>
		</g>
	</g>
	<linearGradient id="SVGID_2_" gradientUnits="userSpaceOnUse" x1="387.7256" y1="362.2036" x2="740.769" y2="362.2036">
		<stop  offset="0" style="stop-color:#7F3F98"/>
		<stop  offset="0" style="stop-color:#7F3F98"/>
	</linearGradient>
	<path fill="url(#SVGID_2_)" d="M582.67,120.429c-129.971,0-194.945,58.503-194.945,175.5c0,115.195,55.798,172.794,167.399,172.794
		c32.428,0,62.714-5.634,90.856-16.907c0,54.104-34.104,81.152-102.3,81.152c-46.026,0-87.28-5.64-123.764-16.906v71.011
		c35.771,11.27,76.784,16.907,123.047,16.907c131.869,0,197.805-51.853,197.805-155.548V134.97
		C679.006,125.281,626.305,120.429,582.67,120.429z M628.354,358.401c-20.423,9.557-41.314,14.341-62.676,14.341
		c-44.404,0-66.604-25.943-66.604-77.844c0-53.663,25.754-80.503,77.285-80.503c22.487,0,39.813,2.124,51.995,6.376V358.401z"/>
	<g>
		<linearGradient id="SVGID_3_" gradientUnits="userSpaceOnUse" x1="1166.8496" y1="248.9136" x2="1261.6367" y2="248.9136">
			<stop  offset="0" style="stop-color:#7F3F98"/>
			<stop  offset="0" style="stop-color:#7F3F98"/>
		</linearGradient>
		<polygon fill="url(#SVGID_3_)" points="1166.85,14.341 1166.85,463.066 1166.85,482.539 1166.85,483.486 1261.637,483.486 
			1261.637,14.341 		"/>
		<linearGradient id="SVGID_4_" gradientUnits="userSpaceOnUse" x1="757.6074" y1="308.2202" x2="1149.6445" y2="308.2202">
			<stop  offset="0" style="stop-color:#7F3F98"/>
			<stop  offset="0" style="stop-color:#7F3F98"/>
		</linearGradient>
		<path fill="url(#SVGID_4_)" d="M1095.22,382.563c-0.117-0.283-0.241-0.555-0.354-0.83c-1.702-4.192-2.468-8.712-2.808-12.354
			c-0.17-1.788-0.241-3.384-0.257-4.588c0-0.15,0.027-0.286,0.027-0.434v-2.102V244.242c0-82.451-55.765-123.685-167.293-123.685
			c-40.986,0-86.484,5.961-136.521,17.869v75.006c50.078-11.922,95.622-17.884,136.638-17.884c48.406,0,72.613,16.809,72.613,50.433
			v28.259c-0.06-0.011-0.113-0.019-0.173-0.03v0.046c-25.498-4.755-50.988-7.146-76.493-7.146c-30.554,0-56.813,2.95-78.776,8.848
			c-56.134,15.092-84.208,49.452-84.216,103.069c0.012,77.904,45.883,116.856,137.619,116.856
			c39.318,0,75.297-11.198,107.944-33.602c0,0,15.861-9.135,34.16-23.204c15.639,14.771,34.21,26.444,54.727,34.13
			c17.729,6.641,36.911,10.315,56.968,10.315c0.208,0,0.412-0.011,0.619-0.011v-31.429
			C1125.663,434.478,1106.689,410.459,1095.22,382.563z M997.266,398.718c-26.95,19.56-56.156,29.331-87.635,29.331
			c-38.159,0-57.231-16.688-57.231-50.078c0-30.995,22.77-46.498,68.317-46.498c27.188,0,52.7,2.389,76.549,7.153V398.718z"/>
	</g>
	<linearGradient id="SVGID_5_" gradientUnits="userSpaceOnUse" x1="1278.5283" y1="308.2202" x2="1670.5732" y2="308.2202">
		<stop  offset="0" style="stop-color:#7F3F98"/>
		<stop  offset="0" style="stop-color:#7F3F98"/>
	</linearGradient>
	<path fill="url(#SVGID_5_)" d="M1670.573,452.086c-23.985-17.601-42.963-41.623-54.433-69.523c-0.117-0.283-0.245-0.555-0.354-0.83
		c-1.702-4.192-2.468-8.712-2.812-12.354c-0.166-1.788-0.237-3.384-0.256-4.588c0-0.15,0.026-0.286,0.026-0.434v-2.102V244.242
		c0-82.451-55.765-123.685-167.293-123.685c-40.982,0-86.48,5.961-136.518,17.869v75.006
		c50.075-11.922,95.622-17.884,136.638-17.884c48.407,0,72.615,16.809,72.615,50.433v28.259c-0.061-0.011-0.117-0.019-0.174-0.03
		v0.046c-25.498-4.755-50.992-7.146-76.493-7.146c-30.554,0-56.813,2.95-78.775,8.848c-56.138,15.092-84.209,49.452-84.217,103.069
		c0.012,77.904,45.88,116.856,137.619,116.856c39.318,0,75.293-11.198,107.944-33.602c0,0,15.857-9.135,34.16-23.204
		c15.635,14.771,34.206,26.444,54.723,34.13c17.733,6.641,36.911,10.315,56.969,10.315c0.211,0,0.418-0.011,0.63-0.011V452.086z
		 M1518.188,398.718c-26.954,19.56-56.161,29.331-87.639,29.331c-38.156,0-57.232-16.688-57.232-50.078
		c0-30.995,22.773-46.498,68.321-46.498c27.184,0,52.7,2.389,76.55,7.153V398.718z"/>
</g>
</svg>
