<?xml version="1.0" encoding="utf-8"?>
<!-- Generator: Adobe Illustrator 16.0.0, SVG Export Plug-In . SVG Version: 6.00 Build 0)  -->
<!DOCTYPE svg PUBLIC "-//W3C//DTD SVG 1.1//EN" "http://www.w3.org/Graphics/SVG/1.1/DTD/svg11.dtd">
<svg version="1.1" id="Layer_1" xmlns="http://www.w3.org/2000/svg" xmlns:xlink="http://www.w3.org/1999/xlink" x="0px" y="0px"
	 width="1331.734px" height="1277.744px" viewBox="0 0 1331.734 1277.744" enable-background="new 0 0 1331.734 1277.744"
	 xml:space="preserve">
<g>
	<linearGradient id="SVGID_1_" gradientUnits="userSpaceOnUse" x1="88.2852" y1="638.8721" x2="1309.7339" y2="638.8721">
		<stop  offset="0" style="stop-color:#7F3F98"/>
		<stop  offset="0" style="stop-color:#7F3F98"/>
	</linearGradient>
	<path fill="url(#SVGID_1_)" d="M1025.947,845.328l0.092,0.59c-0.41-0.953-0.687-1.932-1.081-2.881
		c-7.029-17.363-8.372-36.885-8.521-47.051c-0.046-4.258,0.087-7.025,0.087-7.025v-327.79c0-228.99-154.888-343.505-464.631-343.505
		c-113.835,0-240.245,16.565-379.233,49.646v208.492c138.988-33.105,265.398-49.646,379.233-49.646
		c134.357,0,201.518,46.663,201.518,139.969v78.425c-70.814-13.212-141.61-19.85-212.447-19.85
		c-301.792,0-452.679,103.574-452.679,310.748c0,216.426,127.398,324.629,382.211,324.629c109.193,0,209.118-31.096,299.803-93.33
		c0,0,44.049-25.361,94.862-64.432c80.956,76.457,190.063,123.422,310.226,123.422c46.771,0,91.901-7.131,134.347-20.326
		C1180.814,1065.365,1076.805,969.078,1025.947,845.328z"/>
	<path fill="#FFFFFF" d="M1016.437,795.986c0.015-0.41,0.087-0.799,0.087-1.209v-5.816
		C1016.524,788.961,1016.391,791.729,1016.437,795.986z"/>
	<path fill="#FFFFFF" d="M1026.039,845.918l-0.092-0.59c-0.318-0.779-0.687-1.512-0.989-2.291
		C1025.352,843.986,1025.628,844.965,1026.039,845.918z"/>
	<g>
		<path fill="#FFFFFF" d="M399.439,842.219c0.133,41.363-33.32,74.986-74.7,75.1c-41.375,0.127-75.018-33.305-75.105-74.689
			c-0.128-41.412,33.346-75.014,74.71-75.115C365.704,767.4,399.331,800.854,399.439,842.219z"/>
		<path fill="#FFFFFF" d="M601.25,842.219c0.107,41.363-33.341,74.986-74.715,75.1c-41.396,0.127-75.002-33.326-75.11-74.689
			c-0.128-41.387,33.32-75.014,74.71-75.115C567.515,767.4,601.123,800.854,601.25,842.219z"/>
		<path fill="#FFFFFF" d="M803.02,842.219c0.128,41.363-33.32,74.986-74.695,75.1c-41.343,0.127-75.001-33.326-75.108-74.689
			c-0.118-41.387,33.32-75.014,74.698-75.115C769.305,767.4,802.932,800.854,803.02,842.219z"/>
	</g>
</g>
</svg>
