<?xml version="1.0" encoding="UTF-8" standalone="no"?>
<!-- Created with Inkscape (http://www.inkscape.org/) -->

<svg
   xmlns:dc="http://purl.org/dc/elements/1.1/"
   xmlns:cc="http://creativecommons.org/ns#"
   xmlns:rdf="http://www.w3.org/1999/02/22-rdf-syntax-ns#"
   xmlns:svg="http://www.w3.org/2000/svg"
   xmlns="http://www.w3.org/2000/svg"
   xmlns:xlink="http://www.w3.org/1999/xlink"
   xmlns:sodipodi="http://sodipodi.sourceforge.net/DTD/sodipodi-0.dtd"
   xmlns:inkscape="http://www.inkscape.org/namespaces/inkscape"
   width="1000"
   height="1000"
   viewBox="0 0 999.99996 1000"
   id="svg2"
   version="1.1"
   inkscape:version="0.91 r13725"
   sodipodi:docname="agala.svg">
  <defs
     id="defs4">
    <linearGradient
       inkscape:collect="always"
       id="linearGradient4454">
      <stop
         style="stop-color:#bbadc2;stop-opacity:1"
         offset="0"
         id="stop4456" />
      <stop
         style="stop-color:#461e58;stop-opacity:1"
         offset="1"
         id="stop4458" />
    </linearGradient>
    <linearGradient
       inkscape:collect="always"
       id="linearGradient4430">
      <stop
         style="stop-color:#beb5c2;stop-opacity:1;"
         offset="0"
         id="stop4432" />
      <stop
         style="stop-color:#461e58;stop-opacity:1"
         offset="1"
         id="stop4434" />
    </linearGradient>
    <linearGradient
       inkscape:collect="always"
       xlink:href="#linearGradient4430"
       id="linearGradient4444"
       x1="80.928574"
       y1="651.59082"
       x2="594.38568"
       y2="651.59082"
       gradientUnits="userSpaceOnUse"
       gradientTransform="matrix(-0.44592273,0.48374783,-0.48092866,-0.4485367,1067.6978,583.2502)" />
    <radialGradient
       inkscape:collect="always"
       xlink:href="#linearGradient4454"
       id="radialGradient4460"
       cx="360.51428"
       cy="651.59082"
       fx="360.51428"
       fy="651.59082"
       r="405.29999"
       gradientTransform="matrix(-0.25731206,0.27913839,-1.0745334,-1.0021604,1386.4884,1017.7509)"
       gradientUnits="userSpaceOnUse" />
  </defs>
  <sodipodi:namedview
     id="base"
     pagecolor="#ffffff"
     bordercolor="#666666"
     borderopacity="1.0"
     inkscape:pageopacity="0.0"
     inkscape:pageshadow="2"
     inkscape:zoom="0.35"
     inkscape:cx="1031.0933"
     inkscape:cy="547.47339"
     inkscape:document-units="px"
     inkscape:current-layer="layer1"
     showgrid="false"
     inkscape:snap-path-clip="false"
     inkscape:snap-path-mask="false"
     inkscape:object-paths="true"
     units="px"
     fit-margin-top="0"
     fit-margin-left="0"
     fit-margin-right="0"
     fit-margin-bottom="0"
     inkscape:window-width="1366"
     inkscape:window-height="716"
     inkscape:window-x="0"
     inkscape:window-y="0"
     inkscape:window-maximized="1" />
  <metadata
     id="metadata7">
    <rdf:RDF>
      <cc:Work
         rdf:about="">
        <dc:format>image/svg+xml</dc:format>
        <dc:type
           rdf:resource="http://purl.org/dc/dcmitype/StillImage" />
        <dc:title />
      </cc:Work>
    </rdf:RDF>
  </metadata>
  <g
     inkscape:label="Layer 1"
     inkscape:groupmode="layer"
     id="layer1"
     transform="translate(1.6060328e-5,-52.362208)">
    <g
       id="g4227">
      <path
         sodipodi:nodetypes="ccccccccccc"
         inkscape:connector-curvature="0"
         id="rect4224"
         d="m 337.14282,455.21934 262.85721,-311.42857 65.71428,39.70647 108.57143,112.71037 25.71429,64.13896 -37.14285,246.9961 -77.14286,-7.28963 -65.71429,55.56751 -102.85714,46.9961 -111.42864,-71.42857 z"
         style="opacity:1;fill:#ffffff;fill-opacity:1;stroke:#000000;stroke-width:1;stroke-linecap:butt;stroke-linejoin:miter;stroke-miterlimit:40;stroke-dasharray:none;stroke-dashoffset:0;stroke-opacity:1" />
      <path
         sodipodi:nodetypes="ccccccccccccccccccccccccccccccccccccccc"
         inkscape:connector-curvature="0"
         id="path4471"
         d="m 601.5443,122.6955 c -14.53784,-0.0981 -27.84695,8.1745 -36.54804,19.519 -57.52062,62.62124 -115.48412,124.84144 -172.73381,187.70796 -45.32183,52.80486 -65.31706,126.12167 -53.86088,194.84796 10.31577,66.62265 50.26318,127.70739 106.80479,163.8686 60.70155,39.73409 139.67022,48.89889 207.93273,24.77621 40.83586,-13.93285 77.0876,-39.81359 105.16808,-72.57501 22.0477,-24.23269 46.16231,-47.27104 62.0226,-76.3733 36.72444,-63.70205 41.57422,-144.53672 13.17855,-212.35502 -14.57313,-35.93791 -38.5707,-67.48151 -67.67778,-92.7798 -45.84749,-42.54344 -91.28562,-85.56204 -137.38117,-127.81758 -7.66699,-5.84454 -17.29145,-8.97214 -26.90507,-8.81902 z m 1.30208,31.81979 c 8.93369,1.12641 13.64133,10.34713 20.44876,15.28775 45.99379,43.14914 92.49658,85.76596 138.17694,129.24375 47.12539,47.97754 -7.43764,141.97252 -20.40432,207.9333 -7.73838,41.99253 46.2013,58.03164 16.27725,87.99322 -22.37336,23.76798 -64.28684,-24.38718 -92.42871,-7.24367 -58.37277,37.7829 -114.10112,117.47367 -176.97495,88.07741 -58.28,-26.48989 -102.7442,-81.69254 -116.06979,-144.66976 -14.01311,-61.97397 86.80085,-90.56675 127.95968,-139.26365 46.85854,-51.76951 9.93567,-142.6641 57.12978,-194.13097 12.98057,-13.65441 25.19353,-28.15617 38.61523,-41.3246 2.14034,-1.39165 4.72839,-2.05805 7.27013,-1.90278 z m 47.30327,219.0766 c -16.72911,-0.25141 -31.21621,15.86147 -29.27967,32.58017 0.96864,16.52794 17.47358,29.71608 33.6924,27.06101 16.63355,-1.74549 29.06735,-19.49154 25.15631,-35.83819 -2.67295,-13.74717 -15.63751,-24.20619 -29.56904,-23.80299 z m -56.98958,61.82229 c -16.72532,-0.24829 -31.21409,15.85782 -29.27792,32.57471 0.9716,16.51499 17.45228,29.76327 33.68157,27.08282 16.63004,-1.76251 29.0755,-19.49197 25.16715,-35.84546 -2.66703,-13.75144 -15.63714,-24.21446 -29.5708,-23.81207 z m -56.98959,61.82409 c -16.72893,-0.25115 -31.21538,15.86193 -29.27782,32.58016 0.97688,16.50996 17.45052,29.7521 33.6761,27.07738 16.633,-1.7598 29.08292,-19.49128 25.17261,-35.84727 -2.66665,-13.75099 -15.63769,-24.215 -29.57089,-23.81027 z"
         style="fill:url(#radialGradient4460);fill-opacity:1;stroke:url(#linearGradient4444);stroke-width:0.65776962;stroke-opacity:1" />
      <g
         transform="matrix(0.92595378,0,0,0.93138166,39.683697,220.34672)"
         id="g3383">
        <g
           id="g3337">
          <g
             id="g3339">
            <path
               sodipodi:nodetypes="cccccccccccccccccccccccccccc"
               inkscape:connector-curvature="0"
               d="m 957.51522,224.27 -629.70793,0.225 42.59771,-93.217 -170.135,0 -34.28571,65 84.17371,0 49.192,0 -2.699,30.287 -14.007,157.11 -188.358286,22.85714 -137.142857,42.14286 319.707143,0 -4.283,48.044 -129.038,0 -37.14286,65 160.38586,0 -2.67,29.946 473.4849,-36.4496 z M 298.01214,555.23743 327.96586,448.676 l 41.07317,0 26.26397,-65 -67.60305,0 -2.82952,-134.179 557.08055,5.03308 -132.10391,245.72838 z"
               id="path3341" />
            <path
               inkscape:connector-curvature="0"
               d="m 626.999,786.956 c 16.736,19.827 42.046,31.199 69.442,31.199 53.688,0 102.879,-41.885 111.985,-95.355 4.705,-27.622 -2.319,-54.983 -19.272,-75.068 -16.736,-19.827 -42.046,-31.199 -69.442,-31.199 l -374.45,0 c -53.688,0 -102.879,41.885 -111.986,95.354 -4.705,27.623 2.32,54.985 19.273,75.07 16.736,19.827 42.046,31.199 69.441,31.199 53.688,0 102.878,-41.885 111.985,-95.355 2.408,-14.139 1.736,-28.207 -1.761,-41.269 l 185.457,0 c -4.72,9.498 -8.132,19.695 -9.948,30.354 -4.702,27.623 2.322,54.984 19.276,75.07 z m -261.966,-97.3 c 4.643,5.501 6.372,13.396 4.867,22.229 -3.745,21.984 -26.133,41.271 -47.909,41.271 -8.447,0 -15.284,-2.811 -19.771,-8.125 -4.644,-5.501 -6.372,-13.396 -4.867,-22.23 3.745,-21.983 26.133,-41.269 47.909,-41.269 8.447,-0.001 15.284,2.809 19.771,8.124 z m 374.45,0 c 4.643,5.501 6.372,13.396 4.866,22.229 -3.744,21.984 -26.132,41.271 -47.908,41.271 -8.448,0 -15.284,-2.811 -19.771,-8.125 -4.644,-5.501 -6.372,-13.396 -4.867,-22.23 3.745,-21.983 26.132,-41.269 47.909,-41.269 8.447,-0.001 15.284,2.809 19.771,8.124 z"
               id="path3343" />
            <path
               sodipodi:nodetypes="cccccc"
               inkscape:connector-curvature="0"
               id="rect3345"
               d="m 130.37957,274.90201 143.29942,0 c 0,21.66667 -34.28571,43.33333 -34.28571,65 l -217.585141,0 77.142857,-32.5 z" />
          </g>
        </g>
        <g
           id="g3347" />
        <g
           id="g3349" />
        <g
           id="g3351" />
        <g
           id="g3353" />
        <g
           id="g3355" />
        <g
           id="g3357" />
        <g
           id="g3359" />
        <g
           id="g3361" />
        <g
           id="g3363" />
        <g
           id="g3365" />
        <g
           id="g3367" />
        <g
           id="g3369" />
        <g
           id="g3371" />
        <g
           id="g3373" />
        <g
           id="g3375" />
      </g>
      <g
         transform="matrix(37.96568,-19.965929,17.202212,33.095025,419.31826,876.59323)"
         id="g4605">
        <g
           id="g4565">
          <path
             sodipodi:nodetypes="cccccccccccccc"
             inkscape:connector-curvature="0"
             style="fill:#030104"
             d="m 13.473,4.02 0,-2.687 -0.663,0 L 9.73,0 9.558,0.398 11.716,1.333 9.047,1.333 9.03928,1.8583543 6.6663302,1.5588421 7.0406734,3.2528251 9.0049037,3.4946264 9.046,4.021 l 4.427,0 z"
             id="path4567" />
        </g>
        <g
           id="g4569" />
        <g
           id="g4571" />
        <g
           id="g4573" />
        <g
           id="g4575" />
        <g
           id="g4577" />
        <g
           id="g4579" />
        <g
           id="g4581" />
        <g
           id="g4583" />
        <g
           id="g4585" />
        <g
           id="g4587" />
        <g
           id="g4589" />
        <g
           id="g4591" />
        <g
           id="g4593" />
        <g
           id="g4595" />
        <g
           id="g4597" />
      </g>
    </g>
  </g>
</svg>
